<?xml version="1.0" encoding="utf-8"?>
<!-- Generator: Adobe Illustrator 16.0.0, SVG Export Plug-In . SVG Version: 6.00 Build 0)  -->
<!DOCTYPE svg PUBLIC "-//W3C//DTD SVG 1.1//EN" "http://www.w3.org/Graphics/SVG/1.1/DTD/svg11.dtd">
<svg version="1.1" id="图层_1" xmlns="http://www.w3.org/2000/svg" xmlns:xlink="http://www.w3.org/1999/xlink" x="0px" y="0px"
	 width="600px" height="100px" viewBox="-5 0 600 100" enable-background="new -5 0 600 100" xml:space="preserve">
<path fill="#E9B006" d="M90.35,22.852c1.653-2.747,3.424-2.799,5.724-0.575c3.14,3.022,3.647,4.956,1.288,7.518
	c-3.221,3.494-6.031,7.784-9.971,10.12c-7.483,4.428-10.496,12.884-17.372,17.655c-1.683-0.551-4.495,0.504-4.162-2.932
	c4.933-3.229,9.673-6.538,13.646-11.136c1.98-2.287,1.596-3.145,0.164-4.754c-0.513-0.587-0.762-1.197-0.829-1.93
	c-0.221-0.266-0.277-0.577-0.19-0.912c1.896-2.632,4.747-4.446,6.319-7.372C86.601,26.496,88.183,24.399,90.35,22.852z"/>
<path fill="#EDBC05" d="M65.857,54.639c0.267,2.58,3.642,0.719,4.162,2.932c-5.904,6.492-12.863,10.914-22.009,10.098
	c-3.06-0.285-6.313-1.082-8.176-4.15c-0.366-0.48-0.738-0.971-0.932-1.525c-0.496-1.428-1.515-3.016-0.344-4.367
	c1.196-1.369,2.324,0.467,3.512,0.568c4.822,0.414,9.671,1.486,14.43-0.398C59.621,56.744,62.739,55.697,65.857,54.639z"/>
<path fill="#7E1083" d="M45.664,87.992c-4.944,1.955-9.892,3.912-14.834,5.863c-1.638,0.088-3.854,1.76-4.711-0.5
	c-0.751-1.996,2.099-2.07,3.08-3.299c-2.266-0.123-4.868,1.281-6.565-1.199c-0.858-1.266,0.939-1.668,1.268-2.598
	c4.74-3.078,9.692-5.693,15.251-6.986c1.646,0.928,3.545,0.238,5.243,0.789c1.341,0.432,2.287,1.139,0.853,2.508
	C42.903,84.824,42.928,85.365,45.664,87.992z"/>
<path fill="#8D0A84" d="M45.664,87.992c-1.046-0.141-2.163,0.307-3.128-0.426c1.531-1.926-1.488-2.738-1.082-4.279
	c0.512-1.945,2.664-0.461,3.822-1.684c-0.843-1.387-2.253-0.695-3.38-0.828c-1.139-0.141-2.542,0.307-2.744-1.502
	c6.721-2.688,13.583-4.811,20.868-5.252c1.84,3.506-1.052,4.736-3.253,6.545c2.408,1.582,5.497-0.281,7.674,1.639
	C58.183,84.135,51.923,86.059,45.664,87.992z"/>
<path fill="#E5A807" d="M92.529,56.176c-2.397-0.283-6.035,1.055-6.793-1.662c-0.827-2.938,3.011-3.457,5.074-4.52
	c4.244-2.189,8.569-4.356,13.666-3.38c1.648,0.318,3.128,0.621,3.287,2.639c0.147,1.87-0.615,3.208-2.381,4.026
	C101.306,55.178,97.127,56.553,92.529,56.176z"/>
<path fill="#F1C106" d="M73.806,8.586c-0.833,6.503-3.32,12.451-7.332,17.767c-1.237,1.64-2.398,1.252-2.566-0.533
	c-0.643-6.93,0.57-13.551,4.122-19.59c0.718-1.224,1.751-2.949,3.686-2.034C73.404,4.994,73.767,6.707,73.806,8.586z"/>
<path fill="#A90483" d="M80.412,73.521c8.21-0.117,16.042,1.822,23.817,4.482c-8.495,0.566-16.974,0.762-25.39,1.779
	c-2.04-0.363-4.043,0.105-6.066,0.211c-1.136,0.055-2.436,0.389-3.292-0.813c-0.306-0.445-0.284-0.947,0.105-1.303
	c1.19-1.059,2.462-1.154,3.738-0.465c-0.375-0.982-2.069-1.939-1.134-3.488c0.85-1.416,2.405-0.68,3.632-0.703
	C77.344,73.193,78.919,72.83,80.412,73.521z"/>
<path fill="#9A0582" d="M80.412,73.521c-1.43,0-2.871-0.088-4.292,0.047c-1.206,0.105-2.904-0.738-3.496,0.869
	c-0.572,1.564,1.555,1.797,2.258,2.965c-1.59,1.082-3.6-0.242-5.264,1.334c3.189,1.369,6.397-0.244,9.22,1.049
	c-4.801,0.809-9.597,1.617-14.396,2.422c-2.511-0.016-5.029,0.039-7.54-0.084c-1.119-0.063-2.202-0.766-2.185-1.963
	c0.015-1.215,1.285-0.648,2.006-0.873c2.591-0.816,3.41-2.74,3.298-5.264C66.796,72.898,73.573,72.105,80.412,73.521z"/>
<path fill="#F6CE06" d="M48.463,17.858c0,2.041,0.102,4.093-0.054,6.119c-0.055,0.718-0.417,1.681-1.504,1.745
	c-0.966,0.057-1.046-0.761-1.389-1.372c-2.883-5.209-4.504-10.709-4.227-16.727c0.086-1.841,0.553-3.515,2.437-3.878
	c1.911-0.365,2.647,1.465,3.204,2.838C48.378,10.181,48.832,13.983,48.463,17.858z"/>
<path fill="#F6D70A" d="M20.552,18.087c0.481,0.168,1.428,0.242,2.016,0.74c4.027,3.442,7.089,7.568,8.804,12.64
	c0.282,0.838,0.645,1.598-0.242,2.23c-0.708,0.499-1.432,0.118-2.017-0.242c-4.418-2.67-8.065-6.188-10.613-10.68
	C17.233,20.532,18.28,18.151,20.552,18.087z"/>
<path fill="#6D1682" d="M23.902,86.26c-1.691,2.563-0.653,3.143,2.009,3.262c1.875,0.074,4.546-2.346,5.373,0.314
	c0.436,1.391-3.169,1.549-4.583,2.855c-0.08,0.084-0.107,0.203-0.26,0.473c1.323,1.125,2.965,0.363,4.386,0.691
	c-2.392,1.279-4.83,2.494-7.168,3.871c-2.106,1.24-4.101,2.211-5.921-0.324c-1.698-2.355-1.414-6.219,0.711-7.799
	C20.154,88.344,22.078,87.365,23.902,86.26z"/>
<path fill="#F0C50A" d="M47.164,42.995c0.138-0.492,0.36-1.788,0.852-2.984c0.625-1.519,1.29-3.507,3.397-2.981
	c1.915,0.471,3.9,1.476,4.206,3.846c0.468,3.588-1.198,6.472-3.463,9.002c-1.03,1.148-2.42,1.135-3.274-0.365
	C47.882,47.749,46.996,45.92,47.164,42.995z"/>
<path fill="#F7DA0A" d="M16.453,50.674c-3.821-0.379-7.688-0.803-10.8-3.602c-0.886-0.794-1.411-1.657-0.929-2.834
	c0.488-1.188,1.553-1.33,2.689-1.359c4.938-0.125,8.828,2.451,12.649,5.045c1.484,1.006,0.777,2.134-0.665,2.569
	C18.504,50.75,17.495,50.619,16.453,50.674z"/>
<path fill="#EAB60B" d="M78.906,36.032c-0.021,0.265-0.042,0.534-0.067,0.785c-3.19-0.14-2.674-2.656-1.92-4.064
	c2.877-5.382,6.366-10.386,10.496-14.918c0.901-0.986,1.704-0.505,2.547-0.065c1.424,0.75,0.312,1.539-0.01,2.287
	c-0.236,0.537-0.572,1.022-0.866,1.542c-0.676,2.433-2.26,4.318-3.791,6.23C83.116,30.524,80.808,33.121,78.906,36.032z"/>
<path fill="#F5D30B" d="M14.862,69.15c0.966,0.26,3.833-1.049,4.22,1.244c0.362,2.123-2.703,2.197-4.275,3.063
	c-2.082,1.152-4.417,1.801-6.822,1.941c-1.41,0.076-3.072,0.209-3.513-1.654c-0.429-1.809,1.079-2.568,2.299-3.195
	C9.039,69.396,11.501,68.855,14.862,69.15z"/>
<path fill="#ECCC0C" d="M56.499,57.793c-0.138,0.615-0.45,1.25-1.105,1.203c-5.239-0.359-10.644,1.305-15.719-1.232
	c-0.153-0.07-0.436,0.104-0.949,0.242c1.077,1.711,0.567,3.689,1.108,5.51c-4.335-2.814-5.506-7.67-7.681-11.885
	c-0.27-0.527-0.154-0.97,0.355-1.125c0.569-0.185,1.199-0.144,1.604,0.438C39.809,59.01,47.907,59.205,56.499,57.793z"/>
<path fill="#F8F0AA" d="M84.734,27.324c1.448-1.913,2.903-3.826,4.352-5.725c0.004,0.832,0.398,1.281,1.264,1.253
	c-1.306,2.245-2.962,4.199-4.836,5.979C84.314,28.814,84.11,28.28,84.734,27.324z"/>
<path fill="#F6DD69" d="M84.734,27.324c-0.019,0.649,0.115,1.21,0.779,1.508c-1.618,2.939-3.639,5.504-6.607,7.201
	C79.651,32.332,82.522,30.046,84.734,27.324z"/>
<g>
	<path fill="#BEDDF0" stroke="#BEDDF0" stroke-width="8" stroke-miterlimit="10" d="M178.817,63.396
		c0,9.995,0.748,12.925,2.787,14.304c0.34,0.258,0.544,0.431,0.544,0.775c0,0.172-0.068,0.345-0.136,0.603
		c-1.971,5.17-2.991,5.945-7.137,6.549c-2.719,0.345-6.254,0.604-9.177,0.604c-9.517,0-10.741-1.724-10.741-7.928v-31.02h-10.4
		c-0.272,23.093-2.379,33.002-22.909,43.169l-0.476-1.12c16.926-11.288,20.189-17.75,20.189-42.049h-13.8
		c-1.427,0-3.399,0.344-4.554,0.948l-1.904-3.188c1.7,0.172,3.399,0.345,4.962,0.345h23.792V22.898
		c0-3.533-0.136-9.392-0.272-12.581l4.962,3.533c0.408,0.258,0.612,0.603,0.612,1.034c0,0.259-0.136,0.604-0.408,0.862l-1.7,1.896
		v27.746h2.991c3.399-5.773,9.585-18.354,12.576-26.194l4.419,4.222c0.204,0.258,0.34,0.431,0.34,0.603
		c0,0.258-0.204,0.431-0.612,0.517c-1.292,0.345-2.243,1.292-2.991,2.413l-11.964,18.439h15.839l3.059-5.256l4.487,5.256
		c0.476,0.517,0.68,0.948,0.68,1.292s-0.34,0.604-1.087,0.604h-22.637v30.589c0,4.136,2.039,4.48,5.302,4.48
		c2.719,0,7.953-0.259,9.789-0.517c3.195-0.518,4.487-1.638,4.487-18.439H178.817z M130.553,20.141
		c6.594,4.998,11.216,11.288,11.216,13.528c0,3.36-0.816,5.773-2.311,5.773c-0.68,0-1.156-0.603-1.632-2.844
		c-0.748-3.446-3.671-11.201-7.817-15.423L130.553,20.141z"/>
	<path fill="#BEDDF0" stroke="#BEDDF0" stroke-width="8" stroke-miterlimit="10" d="M251.018,84.162
		c-3.331,0-5.642,0.604-7.138,2.93c-0.204,0.345-0.408,0.517-0.612,0.517c-0.136,0-0.34-0.172-0.612-0.344
		c-15.023-12.149-22.365-27.746-22.705-49.632h-0.612c-2.923,35.415-11.76,43.169-31.066,53.337l-0.476-1.12
		c19.578-12.408,26.375-23.523,28.211-52.217h-22.025c-1.427,0-3.399,0.345-4.554,0.948l-1.904-3.188
		c1.7,0.172,3.399,0.345,4.962,0.345h23.657c0.612-9.996,0.952-17.147,1.087-25.505l5.778,3.447c0.34,0.172,0.476,0.431,0.476,0.689
		c0,0.172-0.136,0.431-0.408,0.603l-2.175,1.723c-0.204,4.395-0.816,12.494-1.428,19.043h21.345l3.331-5.515l4.214,5.859
		c0.34,0.517,0.544,0.861,0.544,1.12c0,0.258-0.272,0.431-0.816,0.431h-26.987c2.039,24.816,13.935,41.446,29.91,45.324V84.162z"/>
	<path fill="#BEDDF0" stroke="#BEDDF0" stroke-width="8" stroke-miterlimit="10" d="M275.837,13.937
		c0.476,0.431,0.68,0.775,0.68,1.034c0,0.258-0.204,0.431-0.68,0.689c-1.428,0.689-1.631,1.12-2.312,3.188
		c-1.631,4.912-3.603,10.167-5.778,15.424c2.175,0.775,2.243,0.775,2.243,1.12c0,0.258-0.136,0.431-1.359,1.551v35.673
		c0,5.342,0.068,10.081,0.272,13.959v0.517c0,1.034-0.272,1.465-1.835,2.585c-0.68,0.518-1.088,0.775-1.428,0.775
		s-0.476-0.517-0.476-1.637v-1.207c0.204-5.083,0.272-10.685,0.272-15.165V39.355c-2.855,6.204-6.05,12.063-9.584,17.233
		l-0.816-0.775c6.934-13.011,12.712-28.176,16.655-45.41L275.837,13.937z M318.459,25.569c0.544,0.604,0.815,1.034,0.815,1.379
		s-0.407,0.517-1.087,0.517h-36.232c-1.428,0-3.399,0.345-4.555,0.948l-1.903-3.188c1.699,0.172,3.399,0.344,4.962,0.344h31.27
		l2.515-4.739L318.459,25.569z M314.38,49.092c0.544,0.604,0.748,1.034,0.748,1.292c0,0.431-0.408,0.604-1.02,0.604h-30.386
		c-1.427,0-3.399,0.345-4.554,0.947l-1.904-3.188c1.7,0.172,3.399,0.344,4.962,0.344h26.104l2.243-4.222L314.38,49.092z
		 M312.749,37.805c0.544,0.603,0.748,1.034,0.748,1.292c0,0.431-0.408,0.603-1.021,0.603h-27.123c-1.427,0-3.398,0.345-4.554,0.948
		l-1.903-3.188c1.699,0.172,3.399,0.345,4.962,0.345h22.841l2.243-4.222L312.749,37.805z M311.865,61.328
		c0.34,0.345,0.476,0.604,0.476,0.861c0,0.432-0.204,0.604-1.972,2.24v12.322c0,2.93,0.068,6.807,0.204,9.393v0.344
		c0,1.034-0.271,1.379-1.768,2.499c-0.543,0.431-0.951,0.689-1.224,0.689c-0.34,0-0.476-0.431-0.476-1.292v-6.979h-22.229v5.601
		c0,1.465-2.923,2.93-3.059,2.93c-0.34,0-0.408-0.345-0.408-1.206v-1.034c0.136-3.103,0.204-7.497,0.204-10.513V65.55
		c0-2.067-0.068-6.203-0.204-8.875l4.351,4.309h19.985l2.176-3.619L311.865,61.328z M307.106,79.509v-16.63h-22.229v16.63H307.106z
		 M292.695,10.404c5.778,4.653,7.138,6.721,7.138,8.961c0,2.585-1.768,4.911-2.787,4.911c-0.815,0-1.155-0.689-1.155-2.843
		c0-2.671-1.768-7.669-3.875-10.254L292.695,10.404z"/>
	<path fill="#BEDDF0" stroke="#BEDDF0" stroke-width="8" stroke-miterlimit="10" d="M381.278,15.315
		c0.204,0.172,0.34,0.345,0.34,0.603c0,0.172-0.136,0.345-0.34,0.603l-2.04,2.24v62.557c0,3.188-1.02,4.826-4.282,7.411
		c-0.204,0.172-0.408,0.258-0.476,0.258c-0.272,0-0.408-0.258-0.477-0.861c-0.407-2.671-1.631-3.878-7.953-5.515l0.136-1.465
		c2.991,0.689,5.167,1.034,6.595,1.034c2.719,0,3.263-1.207,3.263-4.137V57.106h-18.219v9.047c0,8.186,0.068,13.184,0.204,16.458
		v0.689c0,1.12-0.204,1.465-1.563,2.24c-0.611,0.345-1.087,0.517-1.428,0.517c-0.476,0-0.611-0.517-0.611-1.981v-0.775
		c0.136-5.515,0.204-11.115,0.204-17.319v-8.875h-17.335c-0.203,15.251-5.166,25.591-12.508,33.519l-0.747-0.862
		c8.701-12.925,10.265-19.818,10.265-45.84V21.261c0-3.274-0.137-7.065-0.204-9.995l4.078,4.05h36.505l2.039-3.705L381.278,15.315z
		 M354.631,55.21V37.546h-17.198c0,5.428-0.068,11.029-0.137,17.664H354.631z M354.631,35.65V17.211h-17.198V35.65H354.631z
		 M376.044,35.65V17.211h-18.219V35.65H376.044z M376.044,55.21V37.546h-18.219V55.21H376.044z"/>
	<path fill="#BEDDF0" stroke="#BEDDF0" stroke-width="8" stroke-miterlimit="10" d="M453.75,43.319
		c0.408,0.431,0.611,0.862,0.611,1.034c0,0.345-0.271,0.431-0.884,0.431h-33.173l3.331,2.068c0.34,0.172,0.544,0.431,0.544,0.604
		c0,0.258-0.136,0.431-0.408,0.689l-1.631,1.551V53.4c13.663,3.964,20.869,8.358,22.364,10.857c0.884,1.465,1.224,3.102,1.224,4.395
		c0,1.896-0.611,3.274-1.224,3.274c-0.68,0-1.02-0.173-2.516-2.413c-2.786-4.136-9.041-9.736-19.849-14.648v17.062
		c0,7.238,0.136,11.977,0.34,15.682v0.259c0,1.465-2.787,2.585-2.991,2.585c-0.544,0-0.68-0.603-0.68-1.896v-0.689
		c0.136-4.566,0.204-11.546,0.204-15.94V55.555c0-2.843-0.137-7.668-0.204-10.771h-20.598c-1.428,0-3.398,0.345-4.555,0.948
		l-1.903-3.188c1.699,0.172,3.399,0.345,4.963,0.345h22.84v-20.68c0-3.533-0.136-9.392-0.271-12.58l5.438,3.36
		c0.34,0.258,0.544,0.431,0.544,0.689c0,0.258-0.204,0.517-0.477,0.689l-2.039,1.551v8.875h17.538l2.583-4.653l4.419,5.084
		c0.408,0.517,0.68,0.861,0.68,1.034c0,0.259-0.271,0.345-0.815,0.345h-24.404v16.286h23.725l2.719-4.826L453.75,43.319z"/>
	<path fill="#BEDDF0" stroke="#BEDDF0" stroke-width="8" stroke-miterlimit="10" d="M517.045,30.308
		c0.476,0.345,0.68,0.604,0.68,0.775c0,0.259-0.204,0.431-0.612,0.776l-1.903,1.378V81.75c0,1.292,0.137,3.36,0.137,4.652
		c0,1.465-2.72,2.585-2.924,2.585c-0.407,0-0.543-0.517-0.543-1.465v-8.186l-39.292,1.981l-1.835,3.188
		c-0.204,0.345-0.34,0.517-0.544,0.517s-0.476-0.172-0.815-0.517l-4.011-4.48l3.603-3.103V33.497c0-1.982-0.068-3.447-0.204-5.946
		l5.438,4.05c0.408,0.345,0.68,0.517,0.68,0.775c0,0.259-0.204,0.517-0.611,0.862l-2.107,1.81v44.375l18.286-0.947V18.762
		c0-3.446-0.068-5.428-0.204-7.927l5.778,3.619c0.476,0.258,0.747,0.431,0.747,0.689c0,0.258-0.204,0.431-0.68,0.775l-2.379,1.81
		v60.575l18.15-1.034V33.41c0-2.327-0.068-4.05-0.204-6.807L517.045,30.308z"/>
	<path fill="#BEDDF0" stroke="#BEDDF0" stroke-width="8" stroke-miterlimit="10" d="M550.837,61.932
		c0.204,0.258,0.34,0.431,0.34,0.603c0,0.173-0.203,0.345-0.476,0.431c-1.428,0.432-1.699,0.604-2.243,1.293
		c-11.353,14.734-14.14,17.664-19.781,22.575l-0.748-1.12c7.138-7.755,14.071-17.75,18.83-28.176L550.837,61.932z M589.721,26.172
		c0.408,0.517,0.544,0.775,0.544,0.948c0,0.258-0.204,0.345-0.748,0.345h-36.979l-10.809,23.179h17.946v-4.912
		c0-5.773-0.068-8.1-0.204-10.512l5.37,2.843c0.34,0.172,0.476,0.345,0.476,0.604c0,0.258-0.136,0.431-0.408,0.689l-1.903,1.724
		v9.564h13.188l3.059-4.825l4.555,5.687c0.34,0.431,0.476,0.689,0.476,0.862c0,0.172-0.204,0.258-0.68,0.258h-20.598v28.521
		c0,5.945-0.884,7.151-5.574,9.564c-0.067,0.086-0.203,0.086-0.271,0.086c-0.204,0-0.34-0.172-0.408-0.689
		c-0.34-2.671-1.359-3.877-8.089-6.204l0.204-1.033c4.351,0.947,7.001,1.465,8.497,1.465c2.175,0,2.312-0.948,2.312-2.758V52.625
		h-17.539l-1.563,1.896c-0.271,0.345-0.476,0.604-0.68,0.604c-0.136,0-0.271-0.086-0.407-0.259l-3.671-4.652
		c3.127-1.724,3.331-1.896,4.622-4.481c2.651-5.17,5.71-11.805,8.634-18.267h-13.393c-1.427,0-3.398,0.345-4.554,0.948l-1.903-3.188
		c1.699,0.172,3.398,0.344,4.962,0.344h15.703c2.515-5.601,4.758-11.029,6.254-15.165l4.146,4.05c0.271,0.258,0.34,0.431,0.34,0.603
		s-0.136,0.345-0.476,0.517l-2.651,1.207l-4.079,8.789h28.415l3.127-5.428L589.721,26.172z M569.123,59.604
		c13.392,10.082,17.879,15.079,17.879,20.767c0,2.154-0.816,3.705-1.904,3.705c-0.611,0-1.02-0.518-2.379-4.136
		c-1.631-4.309-5.506-10.771-14.14-19.129L569.123,59.604z"/>
</g>
<g>
</g>
<g>
</g>
</svg>
