<?xml version="1.0" encoding="utf-8"?>
<!-- Generator: Adobe Illustrator 16.0.0, SVG Export Plug-In . SVG Version: 6.00 Build 0)  -->
<!DOCTYPE svg PUBLIC "-//W3C//DTD SVG 1.1//EN" "http://www.w3.org/Graphics/SVG/1.1/DTD/svg11.dtd">
<svg version="1.1" id="图层_1" xmlns="http://www.w3.org/2000/svg" xmlns:xlink="http://www.w3.org/1999/xlink" x="0px" y="0px"
	 width="600px" height="100px" viewBox="-5 0 600 100" enable-background="new -5 0 600 100" xml:space="preserve">
<path fill="#E9B006" d="M90.35,22.852c1.653-2.747,3.424-2.799,5.724-0.575c3.14,3.022,3.647,4.956,1.288,7.518
	c-3.221,3.494-6.031,7.784-9.971,10.12c-7.483,4.428-10.496,12.884-17.372,17.655c-1.683-0.551-4.495,0.504-4.162-2.932
	c4.933-3.229,9.673-6.538,13.646-11.136c1.98-2.287,1.596-3.145,0.164-4.754c-0.513-0.587-0.762-1.197-0.829-1.93
	c-0.221-0.266-0.277-0.577-0.19-0.912c1.896-2.632,4.747-4.446,6.319-7.372C86.601,26.496,88.183,24.399,90.35,22.852z"/>
<path fill="#EDBC05" d="M65.857,54.639c0.267,2.58,3.642,0.719,4.162,2.932c-5.904,6.492-12.863,10.914-22.009,10.098
	c-3.06-0.285-6.313-1.082-8.176-4.15c-0.366-0.48-0.738-0.971-0.932-1.525c-0.496-1.428-1.515-3.016-0.344-4.367
	c1.196-1.369,2.324,0.467,3.512,0.568c4.822,0.414,9.671,1.486,14.43-0.398C59.621,56.744,62.739,55.697,65.857,54.639z"/>
<path fill="#7E1083" d="M45.664,87.992c-4.944,1.955-9.892,3.912-14.834,5.863c-1.638,0.088-3.854,1.76-4.711-0.5
	c-0.751-1.996,2.099-2.07,3.08-3.299c-2.266-0.123-4.868,1.281-6.565-1.199c-0.858-1.266,0.939-1.668,1.268-2.598
	c4.74-3.078,9.692-5.693,15.251-6.986c1.646,0.928,3.545,0.238,5.243,0.789c1.341,0.432,2.287,1.139,0.853,2.508
	C42.903,84.824,42.928,85.365,45.664,87.992z"/>
<path fill="#8D0A84" d="M45.664,87.992c-1.046-0.141-2.163,0.307-3.128-0.426c1.531-1.926-1.488-2.738-1.082-4.279
	c0.512-1.945,2.664-0.461,3.822-1.684c-0.843-1.387-2.253-0.695-3.38-0.828c-1.139-0.141-2.542,0.307-2.744-1.502
	c6.721-2.688,13.583-4.811,20.868-5.252c1.84,3.506-1.052,4.736-3.253,6.545c2.408,1.582,5.497-0.281,7.674,1.639
	C58.183,84.135,51.923,86.059,45.664,87.992z"/>
<path fill="#E5A807" d="M92.529,56.176c-2.397-0.283-6.035,1.055-6.793-1.662c-0.827-2.938,3.011-3.457,5.074-4.52
	c4.244-2.189,8.569-4.356,13.666-3.38c1.648,0.318,3.128,0.621,3.287,2.639c0.147,1.87-0.615,3.208-2.381,4.026
	C101.306,55.178,97.127,56.553,92.529,56.176z"/>
<path fill="#F1C106" d="M73.806,8.586c-0.833,6.503-3.32,12.451-7.332,17.767c-1.237,1.64-2.398,1.252-2.566-0.533
	c-0.643-6.93,0.57-13.551,4.122-19.59c0.718-1.224,1.751-2.949,3.686-2.034C73.404,4.994,73.767,6.707,73.806,8.586z"/>
<path fill="#A90483" d="M80.412,73.521c8.21-0.117,16.042,1.822,23.817,4.482c-8.495,0.566-16.974,0.762-25.39,1.779
	c-2.04-0.363-4.043,0.105-6.066,0.211c-1.136,0.055-2.436,0.389-3.292-0.813c-0.306-0.445-0.284-0.947,0.105-1.303
	c1.19-1.059,2.462-1.154,3.738-0.465c-0.375-0.982-2.069-1.939-1.134-3.488c0.85-1.416,2.405-0.68,3.632-0.703
	C77.344,73.193,78.919,72.83,80.412,73.521z"/>
<path fill="#9A0582" d="M80.412,73.521c-1.43,0-2.871-0.088-4.292,0.047c-1.206,0.105-2.904-0.738-3.496,0.869
	c-0.572,1.564,1.555,1.797,2.258,2.965c-1.59,1.082-3.6-0.242-5.264,1.334c3.189,1.369,6.397-0.244,9.22,1.049
	c-4.801,0.809-9.597,1.617-14.396,2.422c-2.511-0.016-5.029,0.039-7.54-0.084c-1.119-0.063-2.202-0.766-2.185-1.963
	c0.015-1.215,1.285-0.648,2.006-0.873c2.591-0.816,3.41-2.74,3.298-5.264C66.796,72.898,73.573,72.105,80.412,73.521z"/>
<path fill="#F6CE06" d="M48.463,17.858c0,2.041,0.102,4.093-0.054,6.119c-0.055,0.718-0.417,1.681-1.504,1.745
	c-0.966,0.057-1.046-0.761-1.389-1.372c-2.883-5.209-4.504-10.709-4.227-16.727c0.086-1.841,0.553-3.515,2.437-3.878
	c1.911-0.365,2.647,1.465,3.204,2.838C48.378,10.181,48.832,13.983,48.463,17.858z"/>
<path fill="#F6D70A" d="M20.552,18.087c0.481,0.168,1.428,0.242,2.016,0.74c4.027,3.442,7.089,7.568,8.804,12.64
	c0.282,0.838,0.645,1.598-0.242,2.23c-0.708,0.499-1.432,0.118-2.017-0.242c-4.418-2.67-8.065-6.188-10.613-10.68
	C17.233,20.532,18.28,18.151,20.552,18.087z"/>
<path fill="#6D1682" d="M23.902,86.26c-1.691,2.563-0.653,3.143,2.009,3.262c1.875,0.074,4.546-2.346,5.373,0.314
	c0.436,1.391-3.169,1.549-4.583,2.855c-0.08,0.084-0.107,0.203-0.26,0.473c1.323,1.125,2.965,0.363,4.386,0.691
	c-2.392,1.279-4.83,2.494-7.168,3.871c-2.106,1.24-4.101,2.211-5.921-0.324c-1.698-2.355-1.414-6.219,0.711-7.799
	C20.154,88.344,22.078,87.365,23.902,86.26z"/>
<path fill="#F0C50A" d="M47.164,42.995c0.138-0.492,0.36-1.788,0.852-2.984c0.625-1.519,1.29-3.507,3.397-2.981
	c1.915,0.471,3.9,1.476,4.206,3.846c0.468,3.588-1.198,6.472-3.463,9.002c-1.03,1.148-2.42,1.135-3.274-0.365
	C47.882,47.749,46.996,45.92,47.164,42.995z"/>
<path fill="#F7DA0A" d="M16.453,50.674c-3.821-0.379-7.688-0.803-10.8-3.602c-0.886-0.794-1.411-1.657-0.929-2.834
	c0.488-1.188,1.553-1.33,2.689-1.359c4.938-0.125,8.828,2.451,12.649,5.045c1.484,1.006,0.777,2.134-0.665,2.569
	C18.504,50.75,17.495,50.619,16.453,50.674z"/>
<path fill="#EAB60B" d="M78.906,36.032c-0.021,0.265-0.042,0.534-0.067,0.785c-3.19-0.14-2.674-2.656-1.92-4.064
	c2.877-5.382,6.366-10.386,10.496-14.918c0.901-0.986,1.704-0.505,2.547-0.065c1.424,0.75,0.312,1.539-0.01,2.287
	c-0.236,0.537-0.572,1.022-0.866,1.542c-0.676,2.433-2.26,4.318-3.791,6.23C83.116,30.524,80.808,33.121,78.906,36.032z"/>
<path fill="#F5D30B" d="M14.862,69.15c0.966,0.26,3.833-1.049,4.22,1.244c0.362,2.123-2.703,2.197-4.275,3.063
	c-2.082,1.152-4.417,1.801-6.822,1.941c-1.41,0.076-3.072,0.209-3.513-1.654c-0.429-1.809,1.079-2.568,2.299-3.195
	C9.039,69.396,11.501,68.855,14.862,69.15z"/>
<path fill="#ECCC0C" d="M56.499,57.793c-0.138,0.615-0.45,1.25-1.105,1.203c-5.239-0.359-10.644,1.305-15.719-1.232
	c-0.153-0.07-0.436,0.104-0.949,0.242c1.077,1.711,0.567,3.689,1.108,5.51c-4.335-2.814-5.506-7.67-7.681-11.885
	c-0.27-0.527-0.154-0.97,0.355-1.125c0.569-0.185,1.199-0.144,1.604,0.438C39.809,59.01,47.907,59.205,56.499,57.793z"/>
<path fill="#F8F0AA" d="M84.734,27.324c1.448-1.913,2.903-3.826,4.352-5.725c0.004,0.832,0.398,1.281,1.264,1.253
	c-1.306,2.245-2.962,4.199-4.836,5.979C84.314,28.814,84.11,28.28,84.734,27.324z"/>
<path fill="#F6DD69" d="M84.734,27.324c-0.019,0.649,0.115,1.21,0.779,1.508c-1.618,2.939-3.639,5.504-6.607,7.201
	C79.651,32.332,82.522,30.046,84.734,27.324z"/>
<g>
	<path fill="#BEDDF0" stroke="#BEDDF0" stroke-width="8" stroke-miterlimit="10" d="M152.285,14.072v32.311h27.619
		c1.768,1.346,1.768,2.692,0,4.039H159.72v32.984c0,3.587,1.415,5.159,4.249,4.712h9.561c3.187,0.447,4.955-4.938,5.312-16.155
		c1.062-2.24,2.125-2.24,3.187,0c-0.356,13.91-3.187,20.642-8.498,20.194h-10.091c-4.606,0.447-6.905-2.246-6.905-8.078V50.422
		h-12.748c0.353,20.194-6.199,34.104-19.652,41.735c-1.772,0-2.303-1.126-1.593-3.366c12.39-8.077,18.411-20.867,18.059-38.369
		h-18.059c-1.772-1.347-1.772-2.693,0-4.039h26.557V14.072C150.16,11.832,151.222,11.832,152.285,14.072z M131.039,17.438
		c3.54,6.731,6.548,14.136,9.029,22.214c-0.357,2.693-1.419,3.145-3.187,1.346c-2.125-7.178-4.958-14.357-8.498-21.541
		C128.383,17.217,129.267,16.543,131.039,17.438z M172.468,18.784c1.768-1.793,2.83-1.346,3.187,1.346
		c-3.187,8.977-6.73,16.382-10.623,22.214c-1.772,0.899-2.656,0.226-2.656-2.02C166.978,32.247,170.343,25.068,172.468,18.784z"/>
	<path fill="#BEDDF0" stroke="#BEDDF0" stroke-width="8" stroke-miterlimit="10" d="M219.739,15.418V32.92h29.744
		c1.768,1.346,1.768,2.692,0,4.039h-29.744c6.374,27.825,16.287,45.101,29.744,51.832c1.415,1.794,1.062,3.14-1.063,4.039
		c-13.457-7.184-23.37-22.661-29.744-46.447c-3.543,22.44-13.104,37.917-28.681,46.447c-2.125-0.452-2.481-1.799-1.063-4.039
		c16.287-8.972,25.495-26.253,27.619-51.832h-26.557c-1.772-1.347-1.772-2.693,0-4.039h26.557V15.418
		C217.614,13.178,218.676,13.178,219.739,15.418z"/>
	<path fill="#BEDDF0" stroke="#BEDDF0" stroke-width="8" stroke-miterlimit="10" d="M267.01,14.072
		c1.415-2.24,2.477-2.02,3.187,0.673c-0.709,5.837-2.125,13.463-4.249,22.887v53.853c-1.062,2.24-2.125,2.24-3.187,0V46.383
		c-1.419,4.039-3.365,7.631-5.843,10.771c-1.771,0.452-2.481-0.447-2.125-2.692C260.811,44.143,264.885,30.68,267.01,14.072z
		 M289.317,15.418c0-2.692,0.884-3.366,2.656-2.02c1.768,3.145,3.187,6.285,4.25,9.424h21.245c1.415,1.346,1.415,2.692,0,4.039
		H271.79c-1.419-1.346-1.419-2.692,0-4.039h20.714C291.442,20.13,290.38,17.664,289.317,15.418z M274.977,36.959h37.711
		c1.415,1.346,1.415,2.692,0,4.039h-37.711C273.558,39.651,273.558,38.305,274.977,36.959z M274.977,49.749h37.711
		c1.415,1.346,1.415,2.692,0,4.038h-37.711C273.558,52.441,273.558,51.095,274.977,49.749z M279.757,63.212h28.15
		c3.893,0,5.664,2.245,5.312,6.731v14.81c0.353,4.933-1.419,7.178-5.312,6.731h-28.15c-3.543,0.446-5.311-1.799-5.311-6.731v-14.81
		C274.446,65.457,276.213,63.212,279.757,63.212z M306.845,67.251h-26.025c-2.125,0-3.187,1.346-3.187,4.038v12.117
		c0,3.14,1.063,4.485,3.187,4.039h26.025c2.478,0.446,3.54-0.899,3.187-4.039V71.289C310.385,68.597,309.322,67.251,306.845,67.251z
		"/>
	<path fill="#BEDDF0" stroke="#BEDDF0" stroke-width="8" stroke-miterlimit="10" d="M335.526,16.764h39.304
		c4.602,0,6.727,2.693,6.374,8.078v57.891c0.353,6.731-2.125,9.871-7.437,9.424c-2.834,0.447-6.552-0.673-11.153-3.366
		c-1.419-2.245-1.063-3.592,1.063-4.038c4.249,2.692,7.436,3.813,9.561,3.365c3.539,0.447,5.133-1.572,4.779-6.059V66.577H356.24
		v22.214c-1.063,1.794-2.124,1.794-3.187,0V66.577H332.34c0,8.078-1.951,16.377-5.843,24.907c-1.772,0.894-2.656,0.221-2.656-2.02
		c3.893-9.425,5.664-17.949,5.312-25.58V24.842C329.152,19.457,331.277,16.764,335.526,16.764z M353.054,20.803h-16.465
		c-2.835,0-4.249,1.798-4.249,5.385v13.463h20.714V20.803z M353.054,43.69H332.34v18.848h20.714V43.69z M373.768,20.803H356.24
		v18.848h21.776V26.188C378.37,22.602,376.955,20.803,373.768,20.803z M378.017,43.69H356.24v18.848h21.776V43.69z"/>
	<path fill="#BEDDF0" stroke="#BEDDF0" stroke-width="8" stroke-miterlimit="10" d="M423.163,14.072v9.424h24.433
		c1.415,1.347,1.415,2.693,0,4.039h-24.433v17.502h30.807c1.415,1.346,1.415,2.692,0,4.039h-30.807v8.078
		c10.976,5.838,19.296,10.996,24.964,15.482c1.063,2.246,0.531,3.366-1.594,3.366c-6.73-4.934-14.519-9.646-23.37-14.137V92.83
		c-1.062,1.794-2.124,1.794-3.187,0V49.075H393.42c-1.419-1.346-1.419-2.692,0-4.039h26.557V14.072
		C421.039,12.278,422.102,12.278,423.163,14.072z"/>
	<path fill="#BEDDF0" stroke="#BEDDF0" stroke-width="8" stroke-miterlimit="10" d="M489.556,17.438
		c1.063-1.793,2.124-1.793,3.187,0v68.661h19.121c2.478,0.447,3.539-0.899,3.187-4.039V25.515c1.063-1.793,2.125-1.793,3.188,0
		v57.891c0.353,4.933-1.42,7.179-5.312,6.731h-44.615c-3.544,0.447-5.312-1.799-5.312-6.731V25.515c1.062-1.793,2.124-1.793,3.187,0
		V82.06c0,3.14,1.063,4.486,3.187,4.039h20.184V17.438z"/>
	<path fill="#BEDDF0" stroke="#BEDDF0" stroke-width="8" stroke-miterlimit="10" d="M550.104,13.398
		c2.125-1.793,3.188-1.346,3.188,1.347l-2.656,7.404h38.242c1.768,1.346,1.768,2.693,0,4.039h-39.835
		c-3.896,8.977-7.614,16.156-11.154,21.541c-1.419,2.246-0.531,3.145,2.656,2.693h18.059v-14.81c1.062-2.24,2.124-2.24,3.187,0
		v14.81h23.37c1.768,1.347,1.768,2.692,0,4.039h-23.37v31.638c-1.419,6.279-6.73,7.405-15.935,3.366
		c-0.709-2.693-0.178-4.039,1.594-4.039c7.079,3.587,10.797,3.14,11.154-1.347V54.461H538.42c-5.668,0.452-7.083-2.02-4.249-7.405
		c4.602-7.179,8.319-14.136,11.154-20.868h-16.466c-1.771-1.346-1.771-2.693,0-4.039h18.059L550.104,13.398z M546.387,61.192
		c-3.543,11.223-8.323,20.642-14.341,28.272c-2.124,0.894-3.012,0-2.655-2.693c6.374-8.524,10.976-17.502,13.81-26.926
		C544.968,58.053,546.03,58.5,546.387,61.192z M572.413,59.846c0-2.24,0.884-3.14,2.655-2.692
		c5.312,9.876,9.734,19.747,13.278,29.618c-0.356,3.14-1.419,3.587-3.187,1.347C581.616,79.146,577.367,69.723,572.413,59.846z"/>
</g>
<g>
</g>
<g>
</g>
</svg>
